<?xml version="1.0" encoding="UTF-8" standalone="no"?>
<!DOCTYPE svg PUBLIC "-//W3C//DTD SVG 1.1//EN"
 "http://www.w3.org/Graphics/SVG/1.1/DTD/svg11.dtd">
<!-- Generated by graphviz version 2.47.3 (20210619.1520)
 -->
<!-- Title: dependencies Pages: 1 -->
<svg width="518pt" height="174pt"
 viewBox="0.00 0.00 518.00 173.80" xmlns="http://www.w3.org/2000/svg" xmlns:xlink="http://www.w3.org/1999/xlink">
<g id="graph0" class="graph" transform="scale(1 1) rotate(0) translate(4 169.8)">
<title>dependencies</title>
<polygon fill="white" stroke="transparent" points="-4,4 -4,-169.8 514,-169.8 514,4 -4,4"/>
<text text-anchor="middle" x="255" y="-8.2" font-family="sans-serif" font-size="14.00">dependencies</text>
<g id="clust1" class="cluster">
<title>cluster_AppModule</title>
<polygon fill="none" stroke="black" stroke-dasharray="1,5" points="8,-32.8 8,-157.8 502,-157.8 502,-32.8 8,-32.8"/>
</g>
<g id="clust6" class="cluster">
<title>cluster_AppModule_providers</title>
<polygon fill="none" stroke="black" points="364,-40.8 364,-92.8 494,-92.8 494,-40.8 364,-40.8"/>
</g>
<g id="clust3" class="cluster">
<title>cluster_AppModule_imports</title>
<polygon fill="none" stroke="black" points="16,-40.8 16,-92.8 356,-92.8 356,-40.8 16,-40.8"/>
</g>
<!-- ClientModule -->
<g id="node1" class="node">
<title>ClientModule</title>
<polygon fill="#8dd3c7" stroke="black" points="347.77,-84.8 344.77,-88.8 323.77,-88.8 320.77,-84.8 254.23,-84.8 254.23,-48.8 347.77,-48.8 347.77,-84.8"/>
<text text-anchor="middle" x="301" y="-62.6" font-family="Times,serif" font-size="14.00">ClientModule</text>
</g>
<!-- AppModule -->
<g id="node4" class="node">
<title>AppModule</title>
<polygon fill="#8dd3c7" stroke="black" points="285.66,-149.8 282.66,-153.8 261.66,-153.8 258.66,-149.8 202.34,-149.8 202.34,-113.8 285.66,-113.8 285.66,-149.8"/>
<text text-anchor="middle" x="244" y="-127.6" font-family="Times,serif" font-size="14.00">AppModule</text>
</g>
<!-- ClientModule&#45;&gt;AppModule -->
<g id="edge1" class="edge">
<title>ClientModule&#45;&gt;AppModule</title>
<path fill="none" stroke="black" d="M269.97,-84.91C269.97,-84.91 269.97,-103.79 269.97,-103.79"/>
<polygon fill="black" stroke="black" points="266.47,-103.79 269.97,-113.79 273.47,-103.79 266.47,-103.79"/>
</g>
<!-- ProjectModule -->
<g id="node2" class="node">
<title>ProjectModule</title>
<polygon fill="#8dd3c7" stroke="black" points="236.7,-84.8 233.7,-88.8 212.7,-88.8 209.7,-84.8 137.3,-84.8 137.3,-48.8 236.7,-48.8 236.7,-84.8"/>
<text text-anchor="middle" x="187" y="-62.6" font-family="Times,serif" font-size="14.00">ProjectModule</text>
</g>
<!-- ProjectModule&#45;&gt;AppModule -->
<g id="edge2" class="edge">
<title>ProjectModule&#45;&gt;AppModule</title>
<path fill="none" stroke="black" d="M219.39,-84.91C219.39,-84.91 219.39,-103.79 219.39,-103.79"/>
<polygon fill="black" stroke="black" points="215.89,-103.79 219.39,-113.79 222.89,-103.79 215.89,-103.79"/>
</g>
<!-- TalentModule -->
<g id="node3" class="node">
<title>TalentModule</title>
<polygon fill="#8dd3c7" stroke="black" points="119.81,-84.8 116.81,-88.8 95.81,-88.8 92.81,-84.8 24.19,-84.8 24.19,-48.8 119.81,-48.8 119.81,-84.8"/>
<text text-anchor="middle" x="72" y="-62.6" font-family="Times,serif" font-size="14.00">TalentModule</text>
</g>
<!-- TalentModule&#45;&gt;AppModule -->
<g id="edge3" class="edge">
<title>TalentModule&#45;&gt;AppModule</title>
<path fill="none" stroke="black" d="M72,-84.91C72,-104.14 72,-131.8 72,-131.8 72,-131.8 191.92,-131.8 191.92,-131.8"/>
<polygon fill="black" stroke="black" points="191.92,-135.3 201.92,-131.8 191.92,-128.3 191.92,-135.3"/>
</g>
<!-- AppService -->
<g id="node5" class="node">
<title>AppService</title>
<ellipse fill="#fdb462" stroke="black" cx="429" cy="-66.8" rx="56.74" ry="18"/>
<text text-anchor="middle" x="429" y="-62.6" font-family="Times,serif" font-size="14.00">AppService</text>
</g>
<!-- AppService&#45;&gt;AppModule -->
<g id="edge4" class="edge">
<title>AppService&#45;&gt;AppModule</title>
<path fill="none" stroke="black" d="M429,-84.91C429,-104.14 429,-131.8 429,-131.8 429,-131.8 295.98,-131.8 295.98,-131.8"/>
<polygon fill="black" stroke="black" points="295.98,-128.3 285.98,-131.8 295.98,-135.3 295.98,-128.3"/>
</g>
</g>
</svg>
